<?xml version="1.0" standalone="no"?>
<!DOCTYPE svg PUBLIC "-//W3C//DTD SVG 20010904//EN"
 "http://www.w3.org/TR/2001/REC-SVG-20010904/DTD/svg10.dtd">
<svg version="1.0" xmlns="http://www.w3.org/2000/svg"
 width="200.000000pt" height="188.000000pt" viewBox="0 0 200.000000 188.000000"
 preserveAspectRatio="xMidYMid meet">
<metadata>
Created by potrace 1.16, written by Peter Selinger 2001-2019
</metadata>
<g transform="translate(0.000000,188.000000) scale(0.100000,-0.100000)"
fill="#000000" stroke="none">
<path d="M827 1850 c-350 -63 -625 -310 -728 -655 -26 -88 -37 -315 -20 -408
26 -138 79 -264 156 -373 62 -86 199 -212 287 -262 240 -136 534 -159 788 -60
72 28 74 30 60 73 -9 28 -16 35 -29 30 -68 -28 -142 -54 -171 -60 l-35 -8 55
60 c30 32 68 78 84 101 27 40 28 44 16 87 -7 25 -16 48 -20 50 -5 3 -22 -20
-39 -50 -31 -55 -158 -198 -193 -216 -17 -9 -18 0 -18 171 l0 180 43 -5 c23
-4 73 -11 110 -17 38 -5 70 -8 73 -6 2 3 -3 23 -12 45 -18 45 -21 47 -146 59
l-68 7 0 153 0 154 181 0 181 0 -6 -27 c-2 -16 -8 -58 -11 -94 l-6 -67 32 -11
c18 -6 37 -7 41 -3 5 5 12 51 16 103 l7 94 178 3 177 2 0 -32 c0 -45 -34 -182
-59 -241 -12 -27 -21 -50 -21 -52 0 -2 16 -9 36 -15 45 -15 43 -17 86 110 31
92 32 100 33 270 0 205 -9 250 -85 407 -116 238 -310 403 -567 479 -71 21
-114 27 -223 29 -74 2 -157 0 -183 -5z m-65 -147 c-55 -64 -122 -164 -142
-213 -11 -27 -17 -31 -39 -25 -31 7 -161 83 -161 93 1 11 90 77 155 113 58 33
196 87 223 88 8 1 -8 -25 -36 -56z m478 32 c40 -14 103 -41 139 -61 68 -37
160 -104 161 -116 0 -10 -130 -86 -161 -93 -22 -6 -28 -2 -39 26 -21 49 -103
168 -152 222 -25 26 -40 47 -33 47 6 0 44 -11 85 -25z m-300 -165 l0 -180 -45
0 c-43 0 -191 26 -208 37 -11 7 47 107 104 180 39 48 134 141 147 143 1 0 2
-81 2 -180z m167 103 c69 -68 179 -231 165 -244 -12 -12 -157 -39 -207 -39
l-45 0 0 175 c0 104 4 175 10 175 5 0 40 -30 77 -67z m-608 -263 c53 -25 70
-38 66 -50 -16 -39 -45 -182 -50 -240 -4 -36 -8 -80 -11 -97 l-5 -33 -176 0
-176 0 7 67 c13 125 70 264 160 387 l40 54 36 -27 c20 -14 69 -42 109 -61z
m1189 -29 c67 -102 122 -268 122 -363 l0 -28 -177 2 -178 3 -7 92 c-6 81 -34
226 -53 273 -4 12 15 26 74 55 44 21 92 48 107 60 l28 22 22 -26 c12 -14 40
-55 62 -90z m-842 -72 l94 -11 0 -154 0 -154 -180 0 -180 0 6 63 c7 74 38 231
52 269 l11 26 52 -13 c28 -8 94 -19 145 -26z m493 -54 c11 -44 23 -105 26
-135 3 -30 8 -72 10 -92 l5 -38 -180 0 -180 0 0 154 0 154 93 11 c50 7 115 18
142 25 28 7 53 10 57 7 3 -3 16 -42 27 -86z m-835 -387 c3 -18 8 -62 11 -98 6
-60 35 -203 50 -241 4 -12 -5 -20 -39 -33 -25 -9 -72 -35 -106 -57 -52 -34
-64 -38 -78 -27 -24 20 -100 142 -128 205 -29 64 -64 203 -64 251 l0 32 175 0
174 0 5 -32z m436 -121 l0 -153 -100 -13 c-55 -6 -121 -18 -145 -26 -25 -7
-47 -10 -49 -7 -17 31 -47 176 -61 300 l-6 52 181 0 180 0 0 -153z m0 -417 c0
-211 6 -206 -107 -87 -63 66 -162 211 -152 222 5 5 154 34 199 38 19 2 41 5
48 5 9 2 12 -40 12 -178z m-290 19 c24 -45 73 -113 109 -151 l65 -71 -34 8
c-104 22 -243 92 -342 172 -36 29 -36 29 -15 43 52 33 143 80 157 79 8 0 35
-35 60 -80z"/>
<path d="M1222 698 c46 -130 243 -638 248 -638 3 0 27 35 53 78 26 42 51 84
56 92 9 12 28 -3 106 -80 l95 -95 47 48 48 47 -95 95 c-77 78 -92 97 -80 105
8 6 50 31 93 56 43 26 76 51 75 56 -3 9 -620 248 -640 248 -6 0 -8 -6 -6 -12z"/>
</g>
</svg>
